<?xml version="1.0" standalone="no"?>
<!DOCTYPE svg PUBLIC "-//W3C//DTD SVG 20010904//EN"
 "http://www.w3.org/TR/2001/REC-SVG-20010904/DTD/svg10.dtd">
<svg version="1.0" xmlns="http://www.w3.org/2000/svg"
 width="120.000000pt" height="120.000000pt" viewBox="0 0 120.000000 120.000000"
 preserveAspectRatio="xMidYMid meet">
<metadata>
Created by potrace 1.11, written by Peter Selinger 2001-2013
</metadata>
<g transform="translate(0.000000,120.000000) scale(0.100000,-0.100000)"
fill="#000000" stroke="none">
<path d="M259 1030 c-44 -23 -86 -71 -110 -125 -25 -56 -31 -90 -30 -165 0
-36 -4 -72 -9 -80 -5 -8 -10 -11 -10 -6 0 21 -81 -92 -86 -122 -34 -181 135
-348 408 -403 127 -25 319 -16 443 22 22 7 42 13 45 14 40 7 172 94 213 140
55 63 83 182 56 248 -7 17 -32 53 -56 80 -40 43 -44 51 -41 95 9 182 -92 323
-227 318 -37 -1 -59 -8 -85 -28 -105 -80 -223 -83 -328 -7 -55 40 -128 47
-183 19z"/>
</g>
</svg>
